<svg 
 xmlns="http://www.w3.org/2000/svg"
 xmlns:xlink="http://www.w3.org/1999/xlink"
 width="8px" height="7px">
<path fill-rule="evenodd"  fill="rgb(0, 0, 0)"
 d="M0.092,4.288 C0.031,4.228 -0.000,4.137 -0.000,4.077 C-0.000,4.017 0.031,3.926 0.092,3.866 L0.523,3.445 C0.646,3.324 0.831,3.324 0.954,3.445 L0.985,3.475 L2.677,5.252 C2.738,5.312 2.831,5.312 2.892,5.252 L7.015,1.066 L7.046,1.066 L7.046,1.066 L7.046,1.066 C7.169,0.945 7.354,0.945 7.477,1.066 L7.908,1.487 C8.031,1.608 8.031,1.788 7.908,1.909 L7.908,1.909 L7.908,1.909 L2.985,6.909 C2.923,6.969 2.861,6.999 2.769,6.999 C2.677,6.999 2.615,6.969 2.554,6.909 L0.154,4.379 L0.092,4.288 Z"/>
</svg>