<?xml version="1.0" encoding="UTF-8" standalone="no"?>
<!-- Generator: Adobe Illustrator 16.0.0, SVG Export Plug-In . SVG Version: 6.00 Build 0)  -->

<svg
   xmlns:dc="http://purl.org/dc/elements/1.1/"
   xmlns:cc="http://creativecommons.org/ns#"
   xmlns:rdf="http://www.w3.org/1999/02/22-rdf-syntax-ns#"
   xmlns:svg="http://www.w3.org/2000/svg"
   xmlns="http://www.w3.org/2000/svg"
   xmlns:sodipodi="http://sodipodi.sourceforge.net/DTD/sodipodi-0.dtd"
   xmlns:inkscape="http://www.inkscape.org/namespaces/inkscape"
   version="1.1"
   id="Capa_1"
   x="0px"
   y="0px"
   width="284.935px"
   height="284.936px"
   viewBox="0 0 284.935 284.936"
   style="enable-background:new 0 0 284.935 284.936;"
   xml:space="preserve"
   sodipodi:docname="left-arrow.svg"
   inkscape:version="0.92.3 (2405546, 2018-03-11)"><metadata
   id="metadata41"><rdf:RDF><cc:Work
       rdf:about=""><dc:format>image/svg+xml</dc:format><dc:type
         rdf:resource="http://purl.org/dc/dcmitype/StillImage" /><dc:title></dc:title></cc:Work></rdf:RDF></metadata><defs
   id="defs39" /><sodipodi:namedview
   pagecolor="#ffffff"
   bordercolor="#666666"
   borderopacity="1"
   objecttolerance="10"
   gridtolerance="10"
   guidetolerance="10"
   inkscape:pageopacity="0"
   inkscape:pageshadow="2"
   inkscape:window-width="1920"
   inkscape:window-height="1017"
   id="namedview37"
   showgrid="false"
   inkscape:zoom="0.82825616"
   inkscape:cx="142.4675"
   inkscape:cy="142.468"
   inkscape:window-x="-8"
   inkscape:window-y="-8"
   inkscape:window-maximized="1"
   inkscape:current-layer="Capa_1" />
<g
   id="g4"
   style="fill:#67ab42;fill-opacity:1"
   transform="matrix(-1,0,0,1,284.937,0)">
	<path
   d="M 222.701,135.9 89.652,2.857 C 87.748,0.955 85.557,0 83.084,0 80.61,0 78.42,0.955 76.517,2.857 L 62.244,17.133 c -1.906,1.903 -2.855,4.089 -2.855,6.567 0,2.478 0.949,4.664 2.855,6.567 L 174.448,142.471 62.244,254.677 c -1.906,1.903 -2.855,4.093 -2.855,6.564 0,2.477 0.949,4.667 2.855,6.57 l 14.274,14.271 c 1.903,1.905 4.093,2.854 6.567,2.854 2.473,0 4.663,-0.951 6.567,-2.854 L 222.694,149.038 c 1.902,-1.902 2.854,-4.093 2.854,-6.567 0,-2.474 -0.945,-4.664 -2.847,-6.571 z"
   id="path2"
   style="fill:#67ab42;fill-opacity:1"
   inkscape:connector-curvature="0" />
</g>
<g
   id="g6">
</g>
<g
   id="g8">
</g>
<g
   id="g10">
</g>
<g
   id="g12">
</g>
<g
   id="g14">
</g>
<g
   id="g16">
</g>
<g
   id="g18">
</g>
<g
   id="g20">
</g>
<g
   id="g22">
</g>
<g
   id="g24">
</g>
<g
   id="g26">
</g>
<g
   id="g28">
</g>
<g
   id="g30">
</g>
<g
   id="g32">
</g>
<g
   id="g34">
</g>
</svg>